REM DIRINDEX 1\2,1\4,1\3\5,1\3\6,1\3\7
REM DIRNAME cjc082,folder01,folder02,folder03,folder04,folder05,folder06
TITLE ""
FILE "CD2Track13.mp3" MP3
  TRACK 01 AUDIO
    TITLE "0:"
    INDEX 01 00:00:00
  TRACK 02 AUDIO
    TITLE "5:cjc082_1523"
    INDEX 01 00:00:29
  TRACK 03 AUDIO
    TITLE "0:"
    INDEX 01 00:01:32
  TRACK 04 AUDIO
    TITLE "6:cjc082_1524"
    INDEX 01 00:02:10
  TRACK 05 AUDIO
    TITLE "0:"
    INDEX 01 00:05:50
  TRACK 06 AUDIO
    TITLE "5:cjc082_1525"
    INDEX 01 00:06:30
  TRACK 07 AUDIO
    TITLE "0:"
    INDEX 01 00:07:41
  TRACK 08 AUDIO
    TITLE "6:cjc082_1526"
    INDEX 01 00:08:30
  TRACK 09 AUDIO
    TITLE "0:"
    INDEX 01 00:10:14
  TRACK 10 AUDIO
    TITLE "5:cjc082_1527"
    INDEX 01 00:10:72
  TRACK 11 AUDIO
    TITLE "0:"
    INDEX 01 00:12:20
  TRACK 12 AUDIO
    TITLE "6:cjc082_1528"
    INDEX 01 00:13:00
  TRACK 13 AUDIO
    TITLE "0:"
    INDEX 01 00:14:07
  TRACK 14 AUDIO
    TITLE "5:cjc082_1529"
    INDEX 01 00:14:58
  TRACK 15 AUDIO
    TITLE "0:"
    INDEX 01 00:15:72
  TRACK 16 AUDIO
    TITLE "6:cjc082_1530"
    INDEX 01 00:16:53
  TRACK 17 AUDIO
    TITLE "0:"
    INDEX 01 00:18:50
  TRACK 18 AUDIO
    TITLE "5:cjc082_1531"
    INDEX 01 00:19:28
  TRACK 19 AUDIO
    TITLE "0:"
    INDEX 01 00:20:26
  TRACK 20 AUDIO
    TITLE "6:cjc082_1532"
    INDEX 01 00:21:09
  TRACK 21 AUDIO
    TITLE "0:"
    INDEX 01 00:21:74
  TRACK 22 AUDIO
    TITLE "5:cjc082_1533"
    INDEX 01 00:22:56
  TRACK 23 AUDIO
    TITLE "0:"
    INDEX 01 00:24:18
  TRACK 24 AUDIO
    TITLE "6:cjc082_1534"
    INDEX 01 00:24:71
  TRACK 25 AUDIO
    TITLE "0:"
    INDEX 01 00:26:20
  TRACK 26 AUDIO
    TITLE "5:cjc082_1535"
    INDEX 01 00:26:73
  TRACK 27 AUDIO
    TITLE "0:"
    INDEX 01 00:28:51
  TRACK 28 AUDIO
    TITLE "6:cjc082_1536"
    INDEX 01 00:29:27
  TRACK 29 AUDIO
    TITLE "0:"
    INDEX 01 00:31:12
  TRACK 30 AUDIO
    TITLE "5:cjc082_1537"
    INDEX 01 00:31:63
  TRACK 31 AUDIO
    TITLE "0:"
    INDEX 01 00:33:44
  TRACK 32 AUDIO
    TITLE "6:cjc082_1538"
    INDEX 01 00:34:26
  TRACK 33 AUDIO
    TITLE "0:"
    INDEX 01 00:36:38
  TRACK 34 AUDIO
    TITLE "5:cjc082_1539"
    INDEX 01 00:37:14
  TRACK 35 AUDIO
    TITLE "0:"
    INDEX 01 00:38:41
  TRACK 36 AUDIO
    TITLE "6:cjc082_1540"
    INDEX 01 00:39:19
  TRACK 37 AUDIO
    TITLE "0:"
    INDEX 01 00:40:23
  TRACK 38 AUDIO
    TITLE "5:cjc082_1541"
    INDEX 01 00:41:02
  TRACK 39 AUDIO
    TITLE "0:"
    INDEX 01 00:42:19
  TRACK 40 AUDIO
    TITLE "6:cjc082_1542"
    INDEX 01 00:42:72
  TRACK 41 AUDIO
    TITLE "0:"
    INDEX 01 00:44:20
  TRACK 42 AUDIO
    TITLE "5:cjc082_1543"
    INDEX 01 00:44:73
  TRACK 43 AUDIO
    TITLE "0:"
    INDEX 01 00:46:41
  TRACK 44 AUDIO
    TITLE "6:cjc082_1544"
    INDEX 01 00:47:21
  TRACK 45 AUDIO
    TITLE "0:"
    INDEX 01 00:48:71
  TRACK 46 AUDIO
    TITLE "5:cjc082_1545"
    INDEX 01 00:49:47
  TRACK 47 AUDIO
    TITLE "0:"
    INDEX 01 00:51:11
  TRACK 48 AUDIO
    TITLE "6:cjc082_1546"
    INDEX 01 00:51:65
  TRACK 49 AUDIO
    TITLE "0:"
    INDEX 01 00:53:23
  TRACK 50 AUDIO
    TITLE "5:cjc082_1547"
    INDEX 01 00:54:03
  TRACK 51 AUDIO
    TITLE "0:"
    INDEX 01 00:55:14
  TRACK 52 AUDIO
    TITLE "6:cjc082_1548"
    INDEX 01 00:55:69
  TRACK 53 AUDIO
    TITLE "0:"
    INDEX 01 00:57:23
  TRACK 54 AUDIO
    TITLE "5:cjc082_1549"
    INDEX 01 00:58:03
  TRACK 55 AUDIO
    TITLE "0:"
    INDEX 01 00:59:14
  TRACK 56 AUDIO
    TITLE "6:cjc082_1550"
    INDEX 01 00:59:67
  TRACK 57 AUDIO
    TITLE "0:"
    INDEX 01 01:02:69
  TRACK 58 AUDIO
    TITLE "5:cjc082_1551"
    INDEX 01 01:03:49
  TRACK 59 AUDIO
    TITLE "0:"
    INDEX 01 01:04:54
  TRACK 60 AUDIO
    TITLE "6:cjc082_1552"
    INDEX 01 01:05:32
  TRACK 61 AUDIO
    TITLE "0:"
    INDEX 01 01:06:18
  TRACK 62 AUDIO
    TITLE "7:cjc082_1553"
    INDEX 01 01:07:64
  TRACK 63 AUDIO
    TITLE "0:"
    INDEX 01 01:18:17
